<svg xmlns="http://www.w3.org/2000/svg" viewBox="0 0 512 512" role="img" aria-label="Campus food creator avatar">
  <defs>
    <radialGradient id="bg" cx="30%" cy="22%" r="78%">
      <stop offset="0" stop-color="#dce8bd"/>
      <stop offset="0.55" stop-color="#7ba582"/>
      <stop offset="1" stop-color="#2f584d"/>
    </radialGradient>
    <linearGradient id="face" x1="0" y1="90" x2="0" y2="320">
      <stop offset="0" stop-color="#efb98e"/>
      <stop offset="1" stop-color="#c86b5a"/>
    </linearGradient>
    <filter id="soft" x="-20%" y="-20%" width="140%" height="140%">
      <feDropShadow dx="0" dy="18" stdDeviation="16" flood-color="#17362f" flood-opacity="0.28"/>
    </filter>
  </defs>
  <rect width="512" height="512" rx="112" fill="url(#bg)"/>
  <path d="M73 352c64-49 127-67 190-54 61 12 113 4 176-42v161H73z" fill="#25493f" opacity="0.22"/>
  <circle cx="390" cy="104" r="48" fill="#fff8d7" opacity="0.22"/>
  <g filter="url(#soft)">
    <path d="M146 360c19-70 68-108 112-108s91 38 110 108c-42 38-180 38-222 0z" fill="#2d3f46"/>
    <circle cx="256" cy="189" r="90" fill="url(#face)"/>
    <path d="M163 184c12-75 58-110 108-105 51 5 79 39 82 103-31-28-69-37-118-31-28 3-52 13-72 33z" fill="#26383d"/>
    <path d="M177 339c45 31 117 32 161 0l31 78c-63 45-167 45-229 0z" fill="#3e5f67"/>
    <path d="M342 299l57 50-43 48-34-76z" fill="#f0c75f"/>
    <path d="M166 292l-48 45 38 52 35-74z" fill="#314d55"/>
    <circle cx="222" cy="199" r="9" fill="#26383d"/>
    <circle cx="291" cy="199" r="9" fill="#26383d"/>
    <path d="M230 237c18 15 38 15 54 0" fill="none" stroke="#7e3d34" stroke-width="9" stroke-linecap="round"/>
    <ellipse cx="258" cy="335" rx="86" ry="37" fill="#fff7d9"/>
    <ellipse cx="258" cy="329" rx="72" ry="23" fill="#f3ce58"/>
    <path d="M208 317c31 16 70 15 101 0" fill="none" stroke="#c78937" stroke-width="9" stroke-linecap="round"/>
    <path d="M194 299l127 39" stroke="#5f3c30" stroke-width="11" stroke-linecap="round"/>
    <circle cx="231" cy="324" r="9" fill="#d5503d"/>
    <circle cx="276" cy="324" r="9" fill="#7fa452"/>
  </g>
</svg>
